<svg xmlns="http://www.w3.org/2000/svg" viewBox="0 0 5687.8 5687.6"><path d="M2843.8 0c1570.2-.7 2843.8 1273.6 2844 2843.7C5688 4408 4421 5687.4 2844 5687.6 1271.7 5687.8-1.2 4413.8 0 2841.8 1.2 1266 1279.8-.9 2843.8 0zm2324.5 3537.7c-5.7 1.6-9.6 2.4-13.3 3.7-23.2 8.4-46.4 16.6-69.4 25.4-166.8 63.3-325.5 143.4-478.2 235.4-187.7 113-363.6 242.5-531.5 383.1-27.1 22.7-53.5 46.3-82 67.1-208.9 152.4-437.7 263.9-687.8 330.5-92.1 24.6-186.3 40.7-281.3 48.2-65.8 5.2-131.7 6.3-197.8 2.1-66.7-4.3-132.7-12.6-198-26.4-148-31.2-286.6-86.6-416.6-163.8-135.6-80.6-255.7-180.5-364.5-294.3-5.5-5.8-10.6-12-15.6-18.3-22.8-28.7-45.7-57.4-68.2-86.3-6.1-7.9-11.7-16.2-16.6-24.9-30.3-53.4-62.4-105.5-97.3-156-50.4-73.1-105.1-142.8-168.4-205.3-39.5-39-81.8-74.5-129.4-103.3-27.4-16.6-56.2-30.5-86.8-40.3-59.8-19.2-119.2-19.6-178.1 3.6-28.1 11.1-53.6 26.7-77.4 45.3-3.3 2.6-6 7.7-12.8 4.9 0-4.2-.2-8.8 0-13.4 2.8-67.3 10-134.3 21.5-200.6 15.2-88.9 37.4-175.9 68.8-260.4 34.4-93 79-180.6 138.6-260.2 75.8-101.2 169.7-180.1 285.4-232.2 97.4-43.9 200.2-63.9 306.3-68.3 72.2-3 143.9 2.2 215.3 12.5 75.9 11 150.6 28 224.3 49.2 132.9 38.2 260.9 89.2 386 147.6 166.3 77.7 325.8 167.8 481.2 265.2 37.3 23.4 75 46.2 110.8 71.6 73.5 52 151.5 97.3 233.1 135.3 132.7 61.8 270.9 104.2 417.6 115.6 66.8 5.2 133.3 3.4 199.4-6.8 108.8-16.8 209.7-54.7 302.8-113.7 84.7-53.5 157.7-120.3 222.4-196.6 68.9-81.2 125.9-170.3 175.6-264.3 6.2-11.8 11.8-23.9 16.9-36.2 30.3-73.4 54.3-148.9 74.2-225.7 36.4-139.9 57.1-282 60.8-426.5 2.5-100.7-4.9-201.4-22.1-300.6-19-110.4-51.7-218-97.3-320.4-5.7-12.8-12.8-24.9-21.1-36.1-215.6-290.2-482.1-521.9-799.4-695-311.7-169.1-645-263.6-998.6-286.8-89.8-5.9-179.9-6.6-269.8-2.1-78.6 3.9-156.9 10.9-234.8 22.1-91 13-181.2 31.3-270.1 54.9-369.2 97.9-697.2 272.9-984 525-5 4.3-9.6 9-15.1 14.3 1.4 5.9 2.3 11.8 4.1 17.3 10.1 30.3 20.1 60.7 30.8 90.8 4.1 11.3 8.9 22.3 14.5 32.9 21.1 40.9 45.2 80.1 72.1 117.5 30.5 42.3 64.7 81.4 103.9 115.9 98.7 87.1 213.7 130.9 345.5 129.5 44.8-.5 89-6.5 132.6-16.8 103.6-24.6 199-68.2 286.9-127.7 49.7-33.6 100.3-65.8 151.9-96.4 107.2-63.8 217.4-121.7 333.5-167.9 95-37.8 192.3-67.4 294.3-79.9 60.5-7.4 120.9-8.2 181.3 1.3 109.6 17.3 201.6 66.2 274.7 150.1 45.2 51.9 78.1 111 103.3 174.7 25.1 63.5 41.5 129.3 51.6 196.8 4.9 33 8.9 66.1 9.3 99.5 0 3.5 1.9 8.2-4.3 10.3-3.4-2.4-7.3-4.9-11-7.6-51.5-36.9-106.6-42-164.9-18.9-28.1 11.2-53.2 27.5-76.8 46.2-28.3 22.4-53.7 47.9-77.4 75.1-44.3 51-81.8 106.8-116.8 164.4-16.2 26.7-34.8 52-52.4 77.9-70.1 76.7-147.8 144.3-236.7 198.6-143.8 87.7-300 129.7-468.4 124.5-74.9-2.3-148.5-13.9-220.9-33.3-139.8-37.4-268.7-98.5-388.1-179.7-23.1-15.8-45.3-32.8-66.7-50.9-63.9-53.6-129.1-105.3-197.2-153.5-115.6-81.9-236.9-153.9-366.7-211-120.8-53.1-245.8-91.7-377-109.1-11.1-1.5-22.3-3.7-33.2-1.8-443 727.3-490.1 1757.3 68.4 2589.2 565.2 841.8 1578.5 1244.1 2573.3 1014.2 238-55 462.2-145.5 672.8-269.4 427.2-251.3 767.7-626.8 976.2-1076.5 48.5-105.5 114.3-282.2 119.8-324.1z" fill="#a9a9b3"/></svg>