<svg width="492mm" height="162mm" viewBox="0 0 492 162" xmlns="http://www.w3.org/2000/svg" version="1.1" preserveAspectRatio="xMidYMid meet"><g id="svgGroup" stroke-linecap="round" fill-rule="evenodd" font-size="9pt" stroke="#000" stroke-width="0.25mm" fill="none" style="stroke:#000;stroke-width:0.25mm;fill:none"><path d="M 0 127.25 L 0 137.125 L 3 137.125 L 3 152.125 L 0 152.125 L 0 162 L 13.5 162 L 13.5 159 L 28.5 159 L 28.5 162 L 43.5 162 L 43.5 159 L 58.5 159 L 58.5 162 L 73.5 162 L 73.5 159 L 88.5 159 L 88.5 162 L 103.5 162 L 103.5 159 L 118.5 159 L 118.5 162 L 133.5 162 L 133.5 159 L 148.5 159 L 148.5 162 L 162 162 L 162 152.125 L 159 152.125 L 159 137.125 L 162 137.125 L 162 127.25 L 0 127.25 Z" id="front_outsideCutPath" stroke="#FF0000" stroke-width="0.1" style="stroke:#FF0000;stroke-width:0.1" vector-effect="non-scaling-stroke"/><path d="M 168 127.25 L 168 137.125 L 165 137.125 L 165 152.125 L 168 152.125 L 168 162 L 178.5 162 L 178.5 159 L 193.5 159 L 193.5 162 L 208.5 162 L 208.5 159 L 223.5 159 L 223.5 162 L 238.5 162 L 238.5 159 L 253.5 159 L 253.5 162 L 268.5 162 L 268.5 159 L 283.5 159 L 283.5 162 L 298.5 162 L 298.5 159 L 313.5 159 L 313.5 162 L 324 162 L 324 152.125 L 327 152.125 L 327 137.125 L 324 137.125 L 324 127.25 L 168 127.25 Z" id="left_outsideCutPath" stroke="#FF0000" stroke-width="0.1" style="stroke:#FF0000;stroke-width:0.1" vector-effect="non-scaling-stroke"/><path d="M 0 89.5 L 0 99.375 L 3 99.375 L 3 114.375 L 0 114.375 L 0 124.25 L 13.5 124.25 L 13.5 121.25 L 28.5 121.25 L 28.5 124.25 L 43.5 124.25 L 43.5 121.25 L 58.5 121.25 L 58.5 124.25 L 73.5 124.25 L 73.5 121.25 L 88.5 121.25 L 88.5 124.25 L 103.5 124.25 L 103.5 121.25 L 118.5 121.25 L 118.5 124.25 L 133.5 124.25 L 133.5 121.25 L 148.5 121.25 L 148.5 124.25 L 162 124.25 L 162 114.375 L 159 114.375 L 159 99.375 L 162 99.375 L 162 89.5 L 0 89.5 Z" id="back_outsideCutPath" stroke="#FF0000" stroke-width="0.1" style="stroke:#FF0000;stroke-width:0.1" vector-effect="non-scaling-stroke"/><path d="M 168 89.5 L 168 99.375 L 165 99.375 L 165 114.375 L 168 114.375 L 168 124.25 L 178.5 124.25 L 178.5 121.25 L 193.5 121.25 L 193.5 124.25 L 208.5 124.25 L 208.5 121.25 L 223.5 121.25 L 223.5 124.25 L 238.5 124.25 L 238.5 121.25 L 253.5 121.25 L 253.5 124.25 L 268.5 124.25 L 268.5 121.25 L 283.5 121.25 L 283.5 124.25 L 298.5 124.25 L 298.5 121.25 L 313.5 121.25 L 313.5 124.25 L 324 124.25 L 324 114.375 L 327 114.375 L 327 99.375 L 324 99.375 L 324 89.5 L 168 89.5 Z" id="right_outsideCutPath" stroke="#FF0000" stroke-width="0.1" style="stroke:#FF0000;stroke-width:0.1" vector-effect="non-scaling-stroke"/><path d="M 333 3 L 333 13.5 L 330 13.5 L 330 28.5 L 333 28.5 L 333 43.5 L 330 43.5 L 330 58.5 L 333 58.5 L 333 73.5 L 330 73.5 L 330 88.5 L 333 88.5 L 333 103.5 L 330 103.5 L 330 118.5 L 333 118.5 L 333 133.5 L 330 133.5 L 330 148.5 L 333 148.5 L 333 159 L 343.5 159 L 343.5 162 L 358.5 162 L 358.5 159 L 373.5 159 L 373.5 162 L 388.5 162 L 388.5 159 L 403.5 159 L 403.5 162 L 418.5 162 L 418.5 159 L 433.5 159 L 433.5 162 L 448.5 162 L 448.5 159 L 463.5 159 L 463.5 162 L 478.5 162 L 478.5 159 L 489 159 L 489 148.5 L 492 148.5 L 492 133.5 L 489 133.5 L 489 118.5 L 492 118.5 L 492 103.5 L 489 103.5 L 489 88.5 L 492 88.5 L 492 73.5 L 489 73.5 L 489 58.5 L 492 58.5 L 492 43.5 L 489 43.5 L 489 28.5 L 492 28.5 L 492 13.5 L 489 13.5 L 489 3 L 478.5 3 L 478.5 0 L 463.5 0 L 463.5 3 L 448.5 3 L 448.5 0 L 433.5 0 L 433.5 3 L 418.5 3 L 418.5 0 L 403.5 0 L 403.5 3 L 388.5 3 L 388.5 0 L 373.5 0 L 373.5 3 L 358.5 3 L 358.5 0 L 343.5 0 L 343.5 3 L 333 3 Z" id="bottom_outsideCutPath" stroke="#FF0000" stroke-width="0.1" style="stroke:#FF0000;stroke-width:0.1" vector-effect="non-scaling-stroke"/></g></svg>