<?xml version="1.0" encoding="UTF-8" standalone="no"?>
<!-- Created with Inkscape (http://www.inkscape.org/) -->
<svg
   xmlns:svg="http://www.w3.org/2000/svg"
   xmlns="http://www.w3.org/2000/svg"
   xmlns:xlink="http://www.w3.org/1999/xlink"
   xmlns:inkscape="http://www.inkscape.org/namespaces/inkscape"
   version="1.0"
   width="348"
   height="185"
   id="svg3246">
  <style>svg { background-color: white; }</style>
  <defs
     id="defs3249">
    <pattern
       xlink:href="#Strips1_10"
       id="pattern7590"
       patternTransform="matrix(0.4689333,-0.3379141,0.3379141,0.4689333,347.50606,211.83179)" />
    <pattern
       inkscape:stockid="Stripes 1:10"
       id="Strips1_10"
       patternTransform="matrix(-0.4056183,0.4117744,-0.4117744,-0.4056183,0,0)"
       height="1"
       width="11"
       patternUnits="userSpaceOnUse">
      <rect
         id="rect6912"
         height="2"
         width="1"
         y="-0.5"
         x="0"
         style="fill:black;stroke:none" />
    </pattern>
    <marker
       refX="0"
       refY="0"
       orient="auto"
       id="Arrow1Lend"
       style="overflow:visible">
      <path
         d="M 0,0 L 5,-5 L -12.5,0 L 5,5 L 0,0 z"
         transform="matrix(-0.8,0,0,-0.8,-10,0)"
         id="path3795"
         style="fill-rule:evenodd;stroke:#000000;stroke-width:1pt;marker-start:none" />
    </marker>
  </defs>
  <path
     d="M 275.12371,4.743493 C 268.88743,10.436375 264.41638,14.456291 265.6558,18.332268 C 266.8618,22.103699 275.0746,37.744189 276.465,50.687082 C 277.27743,58.249714 276.81597,72.116116 275.27362,76.012871 C 274.44087,78.116785 264.0343,85.204579 260.70149,84.966522 C 255.76164,84.613664 244.76389,79.040396 237.05847,74.300763 C 226.15094,67.591521 216.42518,51.544567 212.68805,49.357202 C 209.06711,47.237857 202.17094,50.888859 196.5738,52.501542 C 188.88666,55.378811 183.24494,57.457506 182.96111,61.516916 C 182.68493,65.466833 184.52277,83.036619 181.02196,95.574405 C 178.97641,102.90033 173.41342,115.61028 170.53784,118.65899 C 168.98526,120.30502 156.69393,123.03578 153.68615,121.5806 C 149.22807,119.42374 141.07562,110.17444 135.67282,102.91858 C 128.0248,92.647462 124.93206,74.139902 122.27046,70.72425 C 119.69162,67.41481 111.93375,68.252856 106.15407,67.7672 C 97.964267,67.707421 91.953417,67.567231 90.197557,71.238243 C 88.489057,74.810238 83.74112,91.825882 75.877492,102.19965 C 71.282716,108.26112 61.437933,118.03713 57.643157,119.81566 C 55.594293,120.77591 43.159541,118.79832 40.89705,116.33957 C 37.543629,112.69524 33.360965,101.09709 31.002891,92.363404 C 27.664886,80.00032 31.590377,61.651332 30.370343,57.496541 C 29.188246,53.470942 21.66528,51.399207 16.260126,48.662246"
     id="path3261"
     style="opacity:1;fill:none;fill-opacity:1;fill-rule:evenodd;stroke:#000000;stroke-width:1.5;stroke-linecap:butt;stroke-linejoin:round;stroke-miterlimit:4;stroke-dasharray:none;stroke-dashoffset:0;stroke-opacity:1" />
  <path
     d="M 77.005435,161.27092 C 84.105169,156.69994 89.184981,153.48349 88.610536,149.45493 C 88.051573,145.53502 82.567243,128.74224 83.358735,115.74896 C 83.821203,108.1569 86.592823,94.562471 88.764522,90.978162 C 89.937065,89.042949 101.38152,83.793377 104.62772,84.584898 C 109.43919,85.7581 119.35125,93.090418 126.15653,99.05077 C 135.78985,107.48803 142.69797,124.93432 146.01714,127.71529 C 149.23311,130.4098 156.64232,127.96224 162.43023,127.30733 C 170.49003,125.75478 176.39973,124.64786 177.35778,120.69292 C 178.28998,116.84466 179.41334,99.214769 184.95961,87.438073 C 188.20036,80.556858 195.8086,68.954946 199.1531,66.429504 C 200.95886,65.065994 213.53367,64.427114 216.25605,66.364348 C 220.29114,69.2357 226.78373,79.717022 230.89838,87.773544 C 236.72292,99.178044 236.68016,117.94219 238.7337,121.75451 C 240.72339,125.44828 248.51223,125.9181 254.12954,127.36253 C 262.19426,128.78974 268.09721,129.93218 270.4417,126.60612 C 272.72296,123.36978 280.24694,107.3865 289.73318,98.472302 C 295.27606,93.263666 306.61575,85.269813 310.65433,84.15027 C 312.83482,83.545814 324.76441,87.573068 326.58433,90.375255 C 329.28176,94.528616 331.46795,106.66255 332.33375,115.66745 C 333.55936,128.41444 326.62349,145.84972 327.13224,150.14994 C 327.62518,154.31646 334.69629,157.61593 339.56821,161.21746"
     id="path3268"
     style="opacity:1;fill:none;fill-opacity:1;fill-rule:evenodd;stroke:#000000;stroke-width:1.5;stroke-linecap:butt;stroke-linejoin:round;stroke-miterlimit:4;stroke-dasharray:none;stroke-dashoffset:0;stroke-opacity:1" />
  <path
     d="M 290.64437,90.556841 C 210.79838,156.93151 100.1353,172.0722 5.3949276,129.58406"
     transform="translate(-4.6765847,-54.661214)"
     id="path3270"
     style="opacity:1;fill:none;fill-opacity:1;fill-rule:evenodd;stroke:#000000;stroke-width:1.5;stroke-linecap:butt;stroke-linejoin:round;stroke-miterlimit:4;stroke-dasharray:12, 3, 1.5, 3;stroke-dashoffset:0;stroke-opacity:1" />
  <path
     d="M -34.692559,-344.69765 C 51.312428,-402.31073 162.56105,-406.12414 252.30928,-354.53557"
     transform="translate(90.275526,482.7379)"
     id="path3783"
     style="opacity:1;fill:none;fill-opacity:1;fill-rule:evenodd;stroke:#000000;stroke-width:1.5;stroke-linecap:butt;stroke-linejoin:round;stroke-miterlimit:4;stroke-dasharray:12, 3, 1.5, 3;stroke-dashoffset:0;stroke-opacity:1" />
  <path
     d="M 145.60854,154.09594 L 130.3509,103.31229 M 149.41503,153.09261 L 134.88214,102.09999"
     id="path3785"
     style="opacity:1;fill:none;fill-opacity:1;fill-rule:evenodd;stroke:#000000;stroke-width:1.5;stroke-linecap:butt;stroke-linejoin:round;stroke-miterlimit:4;stroke-dasharray:none;stroke-dashoffset:0;stroke-opacity:1" />
  <g
     id="g6112"
     style="fill:#000000;fill-opacity:1;stroke:none">
    <path
       d="M 142.04803,44.374877 L 140.64178,44.843627 L 154.50274,84.600902 L 155.90899,84.132152 L 142.04803,44.374877 z"
       id="path3787"
       style="opacity:1;fill:#000000;fill-opacity:1;fill-rule:evenodd;stroke:none;stroke-width:1.5;stroke-linecap:butt;stroke-linejoin:round;stroke-miterlimit:4;stroke-dasharray:none;stroke-dashoffset:0;stroke-opacity:1" />
    <path
       d="M 153.47445,79.00809 L 145.8318,75.321637 L 158.41969,93.169466 L 157.1609,71.365442 L 153.47445,79.00809 z"
       id="path6118"
       style="fill:#000000;fill-opacity:1;fill-rule:evenodd;stroke:none;stroke-width:1.2pt;marker-start:none" />
  </g>
  <g
     transform="matrix(1.8037952e-2,-0.9998373,0.9998373,1.8037952e-2,48.015949,304.57806)"
     id="g6128"
     style="fill:#000000;fill-opacity:1;stroke:none">
    <path
       d="M 149.06435,63.263694 L 147.6581,63.732444 L 154.25714,83.942492 L 155.66339,83.473742 L 149.06435,63.263694 z"
       id="path6130"
       style="opacity:1;fill:#000000;fill-opacity:1;fill-rule:evenodd;stroke:none;stroke-width:1.5;stroke-linecap:butt;stroke-linejoin:round;stroke-miterlimit:4;stroke-dasharray:none;stroke-dashoffset:0;stroke-opacity:1" />
    <path
       d="M 153.47445,79.00809 L 145.8318,75.321637 L 158.41969,93.169466 L 157.1609,71.365442 L 153.47445,79.00809 z"
       id="path6132"
       style="fill:#000000;fill-opacity:1;fill-rule:evenodd;stroke:none;stroke-width:1.2pt;marker-start:none" />
  </g>
  <text
     x="112.02364"
     y="41.725132"
     id="text6138"
     xml:space="preserve"
     style="font-size:14px;font-style:normal;font-variant:normal;font-weight:normal;font-stretch:normal;text-align:center;text-anchor:middle;fill:#000000;fill-opacity:1;stroke:none;stroke-width:1px;stroke-linecap:butt;stroke-linejoin:miter;stroke-opacity:1;font-family:Sans;-inkscape-font-specification:Sans"><tspan
       x="112.02364"
       y="41.725132"
       id="tspan6140">Operating pitch circles</tspan></text>
  <text
     x="152.30846"
     y="160.21791"
     id="text6142"
     xml:space="preserve"
     style="font-size:14px;font-style:normal;font-variant:normal;font-weight:normal;font-stretch:normal;text-align:start;text-anchor:start;fill:#000000;fill-opacity:1;stroke:none;stroke-width:1px;stroke-linecap:butt;stroke-linejoin:miter;stroke-opacity:1;font-family:Sans;-inkscape-font-specification:Sans"><tspan
       x="152.30846"
       y="160.21791"
       id="tspan6144">Backlash</tspan><tspan
       x="152.30846"
       y="177.71791"
       id="tspan6146">(transverse operation)</tspan></text>
  <path
     d="M 339.27698,161.07637 L 339.4727,161.41537 M 331.20189,155.38999 L 336.46558,164.50696 M 295.64078,93.796339 L 327.39363,148.79389 M 292.34353,96.3854 L 333.12304,167.01759 M 289.15755,99.167163 L 325.90861,162.82187 M 286.26286,102.45349 L 319.24054,159.5725 M 283.39235,105.78169 L 312.81023,156.73496 M 280.78739,109.56981 L 306.39477,153.92308 M 278.2144,113.41333 L 300.08326,151.29131 M 275.76499,117.47091 L 293.8832,148.85257 M 320.15066,86.448302 L 330.83315,104.95092 M 314.19971,84.441004 L 332.44391,116.04087 M 309.51612,84.62887 L 332.2319,123.97376 M 305.8094,86.50871 L 331.15702,130.41207 M 302.31609,88.758191 L 329.9411,136.60612 M 298.93472,91.201532 L 328.53827,142.47638 M 273.36305,121.61067 L 287.72003,146.47767 M 270.95091,125.73278 L 281.54231,144.07763 M 267.62019,128.26389 L 275.53766,141.97735 M 262.91332,128.41143 L 269.62671,140.03935 M 257.70851,127.69646 L 263.87533,138.37771 M 252.41061,126.8203 L 258.18643,136.82432 M 218.87027,68.726727 L 233.44542,93.971629 M 246.93446,125.6354 L 252.60521,135.45743 M 212.02455,65.169657 L 236.28684,107.19319 M 240.97169,123.60767 L 247.13898,134.28973 M 207.15804,65.040708 L 238.15744,118.73325 M 202.56643,65.387845 L 241.67605,133.12769 M 198.65617,66.915154 L 236.45768,132.38929 M 195.72214,70.133329 L 231.22974,131.63431 M 193.07607,73.850252 L 226.07508,131.00623 M 190.55929,77.791142 L 221.07378,130.64379 M 188.16455,81.94338 L 216.07639,130.28812 M 185.75635,86.072333 L 211.16019,130.07307 M 183.76481,90.922939 L 206.36814,130.07307 M 181.94431,96.069821 L 201.57428,130.06993 M 180.56461,101.98015 L 196.84028,130.17045 M 179.32887,108.13988 L 192.24395,130.50945 M 178.34259,114.73165 L 187.64585,130.84536 M 177.21399,121.07693 L 183.03777,131.16401 M 174.0809,123.95032 L 178.58877,131.75816 M 170.13374,125.4137 L 174.19426,132.44672 M 165.92517,126.42431 L 169.79537,133.12769 M 161.61568,127.26009 L 165.38906,133.79579 M 157.22096,127.94829 L 161.15549,134.76311 M 117.05409,91.577499 L 144.34748,138.85105 M 109.19608,86.267085 L 140.27639,140.09976 M 152.78741,128.56921 L 156.91736,135.7225 M 147.89072,128.38798 L 152.6854,136.69262 M 125.81203,98.446617 L 148.45198,137.66017 M 103.37108,84.477968 L 136.21177,141.35971 M 99.121641,85.417774 L 132.142,142.61072 M 95.19785,86.921645 L 128.10577,143.91984 M 91.466141,88.758192 L 124.18085,145.42173 M 88.441321,91.819124 L 120.25038,146.91405 M 86.684905,97.076982 L 116.3256,148.41617 M 85.332216,103.03411 L 112.40283,149.92179 M 84.334893,109.60678 L 108.52744,151.5095 M 83.509535,116.47727 L 104.72884,153.23018 M 83.865433,125.39378 L 100.94534,154.97704 M 85.89141,137.20293 L 97.161062,156.72254 M 88.672271,150.31959 L 93.370495,158.45715 M 86.191297,154.32248 L 89.586778,160.20363 M 82.897365,156.91729 L 86.397465,162.97964 M 79.442053,159.23258 L 83.264134,165.85262 M 269.75578,-0.83822525 L 273.85085,6.2546552 M 266.98741,2.6669063 L 270.70487,9.1057194 M 264.21834,6.1708129 L 267.6971,12.196197 M 261.04257,8.9702697 L 265.50203,16.694274 M 257.60205,11.311195 L 274.03983,39.782274 M 254.16789,13.663096 L 276.50576,52.353425 M 250.72663,16.002744 L 276.67704,60.950174 M 247.29424,18.357737 L 276.43101,68.824109 M 243.8306,20.658602 L 275.42261,75.377558 M 240.24985,22.756625 L 272.5628,78.724292 M 236.68398,24.880403 L 269.19513,81.191384 M 233.10189,26.97611 L 265.5835,83.23591 M 229.53467,29.097572 L 261.63837,84.702804 M 225.93418,31.161423 L 256.39479,83.920744 M 222.22586,33.038463 L 250.13558,81.379506 M 218.4978,34.881333 L 243.19423,77.656798 M 214.78512,36.750863 L 236.06064,73.601141 M 211.07654,38.627474 L 225.8057,64.139135 M 207.27873,40.349532 L 212.42425,49.261841 M 203.40544,41.940864 L 207.54352,49.108235 M 199.53579,43.538486 L 203.37892,50.194993 M 195.68398,45.167039 L 199.38008,51.568879 M 191.7715,46.690474 L 195.39757,52.971017 M 187.74308,48.01313 L 191.47378,54.474884 M 183.72281,49.349875 L 187.69222,56.225096 M 179.70552,50.691773 L 184.31229,58.670935 M 175.63441,51.940489 L 183.02033,64.733285 M 171.43993,52.975485 L 183.1873,73.32253 M 167.24809,54.015076 L 182.9772,81.258694 M 163.06455,55.06904 L 182.28023,88.351573 M 158.77909,55.946483 L 181.1749,94.737155 M 154.41847,56.693719 L 179.38818,99.942528 M 150.04702,57.422219 L 177.50126,104.97435 M 145.67057,58.142046 L 175.52835,109.85723 M 141.12765,58.573559 L 173.31463,114.32304 M 136.58756,59.009931 L 170.79787,118.26394 M 132.0425,59.43774 L 167.10241,120.16329 M 127.32515,59.567115 L 162.92114,121.22117 M 122.61068,59.701458 L 158.47995,121.82886 M 117.88345,59.813734 L 153.46863,121.44907 M 127.04053,83.97431 L 143.19023,111.94642 M 113.00525,59.664491 L 118.23406,68.721054 M 108.10076,59.469744 L 113.08544,68.103461 M 103.17208,59.233067 L 108.16286,67.877352 M 98.090351,58.731339 L 103.37538,67.885273 M 109.18827,86.253549 L 109.19608,86.267085 M 93.011494,58.234559 L 98.674431,68.043053 M 87.836504,57.571289 L 94.207342,68.605905 M 82.594022,56.791096 L 90.601983,70.661292 M 77.319436,55.95532 L 88.589087,75.474931 M 71.88458,54.841931 L 86.705972,80.513337 M 66.446487,53.722948 L 84.766844,85.454742 M 61.005813,52.599486 L 82.680617,90.14135 M 55.567826,51.480676 L 80.481321,94.632117 M 49.998614,50.134589 L 78.020762,98.670378 M 44.396922,48.732235 L 75.500959,102.60601 M 38.803974,47.345034 L 72.580158,105.84711 M 33.199894,45.938543 L 69.650607,109.07303 M 27.19873,43.844288 L 66.73197,112.31787 M 30.385409,57.663844 L 63.615022,115.21922 M 29.160581,55.542379 L 30.385409,57.663844 M 21.075057,41.537839 L 29.160581,55.542379 M 30.326103,65.861189 L 60.377309,117.91141 M 18.467191,45.32095 L 21.806445,51.104708 M 29.876745,73.382944 L 56.72453,119.88468 M 29.687986,81.35607 L 51.822317,119.69386 M 30.867039,91.698317 L 46.421769,118.6399"
     id="path6449"
     style="opacity:1;fill:none;fill-opacity:1;fill-rule:evenodd;stroke:#000000;stroke-width:0.5;stroke-linecap:butt;stroke-linejoin:round;stroke-miterlimit:4;stroke-dasharray:none;stroke-dashoffset:0;stroke-opacity:1" />
  <g
     transform="matrix(-1.8037952e-2,0.9998373,-0.9998373,-1.8037952e-2,243.50477,-9.9985916)"
     id="g6560"
     style="fill:#000000;fill-opacity:1;stroke:none">
    <path
       d="M 149.06435,63.263694 L 147.6581,63.732444 L 154.25714,83.942492 L 155.66339,83.473742 L 149.06435,63.263694 z"
       id="path6562"
       style="opacity:1;fill:#000000;fill-opacity:1;fill-rule:evenodd;stroke:none;stroke-width:1.5;stroke-linecap:butt;stroke-linejoin:round;stroke-miterlimit:4;stroke-dasharray:none;stroke-dashoffset:0;stroke-opacity:1" />
    <path
       d="M 153.47445,79.00809 L 145.8318,75.321637 L 158.41969,93.169466 L 157.1609,71.365442 L 153.47445,79.00809 z"
       id="path6564"
       style="fill:#000000;fill-opacity:1;fill-rule:evenodd;stroke:none;stroke-width:1.2pt;marker-start:none" />
  </g>
</svg>
