<?xml version="1.0" standalone="no"?>
<!DOCTYPE svg PUBLIC "-//W3C//DTD SVG 20010904//EN"
 "http://www.w3.org/TR/2001/REC-SVG-20010904/DTD/svg10.dtd">
<svg version="1.0" xmlns="http://www.w3.org/2000/svg"
 width="600.000000pt" height="600.000000pt" viewBox="0 0 600.000000 600.000000"
 preserveAspectRatio="xMidYMid meet">
<metadata>
Created by potrace 1.11, written by Peter Selinger 2001-2013
</metadata>
<g transform="translate(0.000000,600.000000) scale(0.100000,-0.100000)"
fill="#000000" stroke="none">
<path d="M2798 5995 c-1 -1 -37 -5 -78 -9 -77 -7 -118 -12 -180 -22 -19 -4
-48 -8 -65 -11 -146 -22 -367 -84 -550 -153 -606 -231 -1123 -660 -1477 -1225
-64 -102 -172 -311 -208 -400 -13 -33 -27 -64 -30 -70 -16 -22 -119 -355 -136
-440 -31 -154 -48 -260 -61 -387 -9 -86 -9 -478 0 -558 4 -36 10 -83 12 -105
19 -175 101 -514 155 -640 4 -11 16 -40 25 -65 24 -64 40 -100 102 -230 223
-463 589 -881 1028 -1175 329 -220 712 -378 1090 -450 80 -15 145 -26 195 -31
30 -3 76 -9 102 -13 52 -9 537 -7 578 2 14 3 50 8 80 12 112 13 137 17 230 37
431 90 848 279 1194 541 44 33 83 63 86 66 3 3 28 24 55 45 75 60 281 269 369
376 177 214 346 491 440 720 15 36 33 79 41 95 15 33 77 216 94 280 20 71 62
259 67 300 3 22 7 46 9 53 3 7 7 40 11 75 3 34 10 91 14 127 8 71 5 500 -4
565 -3 22 -8 60 -12 85 -53 411 -188 798 -400 1151 -225 376 -546 712 -909
954 -142 94 -170 111 -350 199 -146 72 -178 86 -355 147 -163 57 -361 104
-550 129 -41 6 -91 13 -110 16 -36 6 -496 15 -502 9z m472 -448 c94 -12 141
-19 215 -33 100 -18 351 -87 410 -114 11 -5 60 -25 109 -46 395 -165 777 -462
1033 -804 73 -97 121 -240 160 -470 10 -59 10 -381 0 -445 -16 -98 -18 -111
-37 -195 -11 -47 -22 -95 -25 -107 -14 -61 -71 -206 -106 -270 -134 -244 -323
-429 -524 -512 -173 -73 -339 -83 -575 -38 -58 11 -218 70 -294 108 -86 43
-198 108 -206 120 -7 9 -300 190 -319 197 -9 3 -27 13 -41 22 -112 77 -511
254 -667 296 -138 37 -170 44 -213 50 -25 3 -49 9 -54 11 -15 9 -260 12 -306
3 -25 -5 -58 -10 -75 -13 -71 -11 -191 -61 -272 -114 -94 -61 -196 -178 -268
-307 -33 -61 -100 -230 -109 -277 -2 -13 -9 -44 -15 -69 -14 -63 -29 -163 -36
-243 l-6 -68 40 26 c51 35 117 54 170 50 51 -4 151 -34 151 -46 0 -5 5 -9 11
-9 19 0 133 -96 193 -162 31 -35 97 -124 146 -198 156 -236 200 -288 355 -422
63 -54 277 -198 305 -204 3 0 35 -15 72 -32 246 -114 557 -149 858 -97 17 3
43 7 60 10 48 8 258 74 324 101 209 87 415 209 562 334 27 23 58 50 69 59 40
33 221 168 285 212 36 24 67 46 70 49 6 6 4 5 155 96 189 114 564 287 573 263
5 -13 -55 -180 -108 -301 -149 -336 -397 -669 -670 -899 -35 -30 -73 -62 -84
-71 -11 -10 -38 -30 -60 -45 -23 -15 -43 -30 -46 -33 -27 -30 -268 -170 -390
-227 -166 -78 -435 -170 -550 -188 -19 -3 -57 -10 -85 -15 -64 -12 -116 -20
-185 -26 -30 -3 -75 -7 -100 -9 -60 -6 -299 -6 -330 -1 -14 2 -63 7 -110 11
-365 28 -789 179 -1125 399 -487 320 -838 772 -1032 1331 -58 167 -96 345
-121 560 -14 129 -7 498 13 615 55 326 132 570 258 810 70 134 76 142 106 136
14 -3 42 -8 62 -10 157 -19 440 -137 629 -261 53 -35 183 -127 190 -135 36
-38 242 -190 258 -190 6 0 12 -4 14 -8 11 -27 277 -133 381 -153 29 -5 63 -11
77 -14 14 -3 75 -5 135 -5 309 -1 586 156 775 439 132 197 231 285 331 295 41
4 102 -14 114 -34 12 -19 23 -10 20 18 -2 15 -6 50 -9 77 -8 78 -41 193 -75
265 -156 333 -493 394 -971 178 -104 -47 -265 -138 -425 -240 -57 -38 -111
-68 -119 -68 -8 0 -16 -4 -18 -8 -4 -11 -153 -59 -208 -67 -130 -18 -231 -4
-335 46 -135 65 -279 235 -339 402 l-25 69 23 21 c151 146 396 302 671 427
144 66 434 152 590 174 23 4 52 9 65 11 14 3 59 8 100 11 41 3 76 7 78 9 5 5
408 -3 452 -8z"/>
</g>
</svg>
